<svg width="51" height="66" viewBox="0 0 51 66" fill="none" xmlns="http://www.w3.org/2000/svg">
<path d="M0 8.1C0 5.20533 0 3.75799 0.581172 2.66035C1.05017 1.77456 1.77456 1.05017 2.66035 0.581172C3.75799 0 5.20533 0 8.1 0H18.6C30.1787 0 35.968 0 40.3586 2.32469C43.9017 4.20069 46.7993 7.09825 48.6753 10.6414C51 15.032 51 20.8213 51 32.4V57.9C51 60.7947 51 62.242 50.4188 63.3396C49.9498 64.2254 49.2254 64.9498 48.3396 65.4188C47.242 66 45.7947 66 42.9 66H8.1C5.20533 66 3.75799 66 2.66035 65.4188C1.77456 64.9498 1.05017 64.2254 0.581172 63.3396C0 62.242 0 60.7947 0 57.9V8.1Z" fill="#461959"/>
<path d="M29.4878 26.0651L31.045 24.507C31.3697 24.1824 31.8099 24 32.269 24C32.7281 24 33.1684 24.1824 33.493 24.507C33.8176 24.8316 34 25.2719 34 25.731C34 26.1901 33.8176 26.6303 33.493 26.955L20.2295 40.2185C19.7415 40.7062 19.1397 41.0647 18.4784 41.2615L16 42L16.7385 39.5216C16.9353 38.8603 17.2938 38.2585 17.7815 37.7705L29.4888 26.0651H29.4878ZM29.4878 26.0651L31.9229 28.5002" stroke="white" stroke-width="1.5" stroke-linecap="round" stroke-linejoin="round"/>
</svg>
